<svg width="1488" height="1488" viewBox="0 0 1488 1488" fill="none" xmlns="http://www.w3.org/2000/svg">
<path d="M182.784 769.372H212.994V577.618H157.026V615.46H134.13V562.036H319.206V615.46H296.31V577.618H240.342V769.372H270.552V784H182.784V769.372ZM962.818 769.372H986.668V576.664H962.818V562.036H1126.91V615.46H1104.01V577.618H1014.02V666.658H1076.98V641.218H1096.06V707.68H1076.98V682.24H1014.02V769.372H1044.23V784H962.818V769.372Z" fill="#15D82F"/>
<path d="M394.999 787.816C379.735 787.816 367.757 783.894 359.065 776.05C350.585 767.994 346.345 757.076 346.345 743.296C346.345 735.452 347.617 728.562 350.161 722.626C352.705 716.478 356.839 711.39 362.563 707.362C368.499 703.334 376.131 700.26 385.459 698.14C394.787 696.02 406.129 694.96 419.485 694.96H443.017V670.792C443.017 657.86 439.837 648.002 433.477 641.218C427.329 634.222 418.001 630.724 405.493 630.724C399.981 630.724 394.893 631.254 390.229 632.314C385.565 633.162 381.749 634.434 378.781 636.13V636.766C381.113 638.038 383.339 639.946 385.459 642.49C387.791 645.034 388.957 648.638 388.957 653.302C388.957 658.814 387.367 663.16 384.187 666.34C381.007 669.308 376.767 670.792 371.467 670.792C366.379 670.792 362.139 669.308 358.747 666.34C355.567 663.16 353.977 658.496 353.977 652.348C353.977 647.684 355.355 643.232 358.111 638.992C360.867 634.54 364.789 630.618 369.877 627.226C374.965 623.834 381.219 621.184 388.639 619.276C396.271 617.156 404.857 616.096 414.397 616.096C431.569 616.096 444.925 620.548 454.465 629.452C464.217 638.356 469.093 650.864 469.093 666.976V770.326H492.943V781.456C490.611 783.152 487.431 784.636 483.403 785.908C479.587 787.18 475.241 787.816 470.365 787.816C462.097 787.816 455.737 785.484 451.285 780.82C446.833 776.156 444.607 769.902 444.607 762.058V759.832H443.017C441.533 763.436 439.519 766.934 436.975 770.326C434.643 773.718 431.569 776.686 427.753 779.23C423.937 781.774 419.273 783.788 413.761 785.272C408.461 786.968 402.207 787.816 394.999 787.816ZM406.129 770.326C416.305 770.326 424.997 767.782 432.205 762.694C439.413 757.394 443.017 749.338 443.017 738.526V707.68H422.347C413.231 707.68 405.599 708.422 399.451 709.906C393.303 711.178 388.427 713.192 384.823 715.948C381.219 718.492 378.569 721.672 376.873 725.488C375.389 729.304 374.647 733.756 374.647 738.844V745.522C374.647 753.578 377.403 759.726 382.915 763.966C388.427 768.206 396.165 770.326 406.129 770.326ZM584.177 787.816C574.213 787.816 565.521 785.802 558.101 781.774C550.681 777.534 545.805 772.87 543.473 767.782H542.201V784H523.121V734.71H542.201V741.388C542.201 750.504 545.063 757.924 550.787 763.648C556.511 769.372 565.945 772.234 579.089 772.234C591.173 772.234 600.501 770.114 607.073 765.874C613.857 761.422 617.249 754.426 617.249 744.886C617.249 730.046 608.239 720.612 590.219 716.584L571.139 712.45C555.451 709.058 543.579 703.334 535.523 695.278C527.679 687.222 523.757 676.198 523.757 662.206C523.757 647.79 528.739 636.554 538.703 628.498C548.667 620.23 562.023 616.096 578.771 616.096C588.947 616.096 597.215 617.686 603.575 620.866C610.147 624.046 614.493 628.18 616.613 633.268H617.885V619.912H636.965V669.202H617.885V657.118C617.885 640.158 606.013 631.678 582.269 631.678C571.457 631.678 562.977 633.798 556.829 638.038C550.893 642.066 547.925 648.532 547.925 657.436C547.925 664.856 550.363 671.11 555.239 676.198C560.115 681.074 566.793 684.466 575.273 686.374L593.081 690.19C609.405 693.582 621.595 699.2 629.651 707.044C637.919 714.888 642.053 725.806 642.053 739.798C642.053 746.582 640.675 752.942 637.919 758.878C635.375 764.602 631.559 769.69 626.471 774.142C621.595 778.382 615.553 781.668 608.345 784C601.349 786.544 593.293 787.816 584.177 787.816ZM670.444 769.372H693.976V566.806L670.444 562.672V551.542L720.052 542.32V708.634H721.642L748.354 678.742L788.422 634.54H766.798V619.912H834.85V634.54H811.636L765.526 682.558L823.084 769.372H841.21V784H773.476V769.372H793.828L747.718 700.048L720.052 728.986V769.372H743.584V784H670.444V769.372ZM897.491 582.07C891.979 582.07 887.739 580.48 884.771 577.3C882.015 573.908 880.637 569.88 880.637 565.216V563.626C880.637 558.962 882.015 555.04 884.771 551.86C887.739 548.468 891.979 546.772 897.491 546.772C903.003 546.772 907.243 548.468 910.211 551.86C913.179 555.04 914.663 558.962 914.663 563.626V565.216C914.663 569.88 913.179 573.908 910.211 577.3C907.243 580.48 903.003 582.07 897.491 582.07ZM860.921 769.372H884.453V640.582L860.921 636.448V625.636L910.529 616.096V769.372H934.061V784H860.921V769.372ZM1183.5 851.416C1172.69 851.416 1164.85 849.084 1159.97 844.42C1155.09 839.968 1152.66 834.032 1152.66 826.612C1152.66 821.1 1154.14 816.648 1157.11 813.256C1160.08 809.864 1164.32 808.168 1169.83 808.168C1174.7 808.168 1178.41 809.546 1180.96 812.302C1183.71 815.27 1185.09 819.192 1185.09 824.068C1185.09 827.672 1184.14 830.534 1182.23 832.654C1180.53 834.986 1178.63 836.47 1176.51 837.106V838.06C1178.84 838.908 1181.59 839.332 1184.77 839.332C1190.29 839.332 1195.69 836.894 1200.99 832.018C1206.29 827.354 1211.06 819.616 1215.3 808.804L1221.98 790.678L1161.56 634.54H1145.02V619.912H1213.08V634.54H1190.18L1234.38 754.744H1235.65L1278.58 634.54H1255.69V619.912H1313.56V634.54H1297.03L1228.98 811.348C1224.52 823.008 1218.48 832.548 1210.85 839.968C1203.43 847.6 1194.31 851.416 1183.5 851.416Z" fill="#373737"/>
<path d="M32.7817 503.549V441.452H1436.01L32.7817 503.549Z" fill="#15D82F"/>
<path d="M32.7818 441.452L64.1151 441.452L32.7817 821.29L32.7818 441.452Z" fill="#15D82F"/>
<path d="M1420.77 866.451L1420.77 928.548L17.5381 928.548L1420.77 866.451Z" fill="#15D82F"/>
<path d="M1420.77 928.548L1389.43 928.548L1420.77 585L1420.77 928.548Z" fill="#15D82F"/>
</svg>
